<svg width="81" height="62" viewBox="0 0 81 62" fill="none" xmlns="http://www.w3.org/2000/svg">
<path d="M79.5 31C79.5 38.9955 75.2698 46.3378 68.2261 51.7292C61.181 57.1217 51.3834 60.5 40.5 60.5C29.6166 60.5 19.819 57.1217 12.7739 51.7292C5.73025 46.3378 1.5 38.9955 1.5 31C1.5 23.0045 5.73025 15.6622 12.7739 10.2708C19.819 4.87828 29.6166 1.5 40.5 1.5C51.3834 1.5 61.181 4.87828 68.2261 10.2708C75.2698 15.6622 79.5 23.0045 79.5 31Z" stroke="#334989" stroke-width="3"/>
<path fill-rule="evenodd" clip-rule="evenodd" d="M19.9805 13.7778V37.8889H25.4255V27.8656H26.1905L36.8554 37.3677V49.9444H42.3004V39.921H43.0654L54.3154 49.9444H61.4704L47.2954 37.7166L61.0204 25.8333H54.0454L43.0654 35.6499H42.3004V25.8333H36.8554V31.2121L30.4205 25.6612L44.1455 13.7778H37.1705L26.1905 23.5945H25.4255V13.7778H19.9805Z" fill="#0A2472"/>
</svg>
