<svg width="162" height="37" viewBox="0 0 162 37" fill="none" xmlns="http://www.w3.org/2000/svg">
<path d="M0 16.2996V0H4.96565V6.63625H5.66331L15.6767 0H22.0377L9.52092 8.03336L22.448 16.2996H15.9229L5.66331 9.5236H4.96565V16.2996H0Z" fill="#0A2472"/>
<path d="M31.9719 16.6256C30.5492 16.6256 29.2633 16.4858 28.1142 16.2064C26.9652 15.9115 26.0486 15.4923 25.3647 14.949C24.708 14.4057 24.3797 13.7382 24.3797 12.9465C24.3797 12.1703 24.708 11.5184 25.3647 10.9906C26.0486 10.4628 26.9788 10.0669 28.1553 9.80302C29.3317 9.5236 30.6723 9.38389 32.177 9.38389H38.0455V8.68534C38.0455 8.07992 37.7172 7.59094 37.0606 7.21838C36.404 6.83029 35.378 6.63625 33.9827 6.63625C32.6148 6.63625 31.5751 6.82253 30.8638 7.19509C30.1798 7.55213 29.7284 8.01783 29.5095 8.5922L25.1595 7.77722C25.4878 7.17181 26.0076 6.62073 26.7189 6.12398C27.4576 5.62723 28.4289 5.23138 29.6327 4.93644C30.8365 4.62597 32.3138 4.47074 34.0648 4.47074C36.7186 4.47074 38.7979 4.85106 40.3027 5.61171C41.8348 6.35683 42.6008 7.44347 42.6008 8.87162V13.3889C42.6008 13.8546 42.9838 14.0875 43.7499 14.0875H45.4735V16.2996H42.1494C41.1645 16.2996 40.3574 16.1599 39.7281 15.8804C39.0989 15.601 38.7842 15.2207 38.7842 14.7395V14.6929H38.0866C37.9224 14.9102 37.6352 15.1741 37.2248 15.4846C36.8144 15.7951 36.1851 16.0667 35.337 16.2996C34.5162 16.5169 33.3945 16.6256 31.9719 16.6256ZM32.7516 14.4368C34.311 14.4368 35.5832 14.1884 36.5682 13.6916C37.5531 13.1794 38.0455 12.4963 38.0455 11.6425V11.4097H32.4643C31.452 11.4097 30.6313 11.5339 30.002 11.7823C29.3727 12.0306 29.0581 12.3954 29.0581 12.8767C29.0581 13.3424 29.3864 13.7227 30.043 14.0176C30.6997 14.297 31.6025 14.4368 32.7516 14.4368Z" fill="#0A2472"/>
<path d="M49.3783 16.2996V4.79673H54.0156V6.07741H54.7133C55.0689 5.68932 55.6571 5.34781 56.4779 5.05286C57.326 4.7424 58.4478 4.58716 59.8431 4.58716C61.3204 4.58716 62.5106 4.75792 63.4134 5.09943C64.3162 5.44095 65.0002 5.8756 65.4653 6.4034H66.1219C66.587 5.8756 67.2573 5.44095 68.1328 5.09943C69.0083 4.75792 70.2532 4.58716 71.8673 4.58716C73.1258 4.58716 74.2612 4.7424 75.2735 5.05286C76.3132 5.36333 77.1339 5.82127 77.7358 6.42668C78.3651 7.0321 78.6797 7.78498 78.6797 8.68534V16.2996H73.9603V8.87162C73.9603 8.20411 73.6457 7.6996 73.0164 7.35809C72.3871 7.00105 71.5117 6.82253 70.3899 6.82253C69.1588 6.82253 68.1739 7.05538 67.4352 7.52108C66.7238 7.97126 66.3682 8.62324 66.3682 9.47703V16.2996H61.6898V8.87162C61.6898 8.20411 61.3752 7.6996 60.7459 7.35809C60.1166 7.00105 59.2412 6.82253 58.1194 6.82253C56.8609 6.82253 55.876 7.05538 55.1647 7.52108C54.4533 7.97126 54.0977 8.62324 54.0977 9.47703V16.2996H49.3783Z" fill="#0A2472"/>
<path d="M84.4854 20.9566V4.79673H89.1227V6.31026H89.8204C90.2855 5.82903 91.0242 5.40214 92.0365 5.02958C93.0761 4.65702 94.5535 4.47074 96.4686 4.47074C98.1101 4.47074 99.6286 4.70359 101.024 5.16929C102.447 5.61947 103.582 6.28697 104.43 7.17181C105.278 8.05664 105.702 9.11999 105.702 10.3619V10.7344C105.702 11.9763 105.278 13.0396 104.43 13.9245C103.582 14.8093 102.46 15.4846 101.065 15.9503C99.6696 16.4005 98.1375 16.6256 96.4686 16.6256C95.1827 16.6256 94.1021 16.5402 93.2266 16.3694C92.3784 16.1987 91.6808 15.9736 91.1336 15.6941C90.6138 15.4147 90.2034 15.1353 89.9025 14.8559H89.2048V20.9566H84.4854ZM95.0733 14.297C96.7969 14.297 98.2059 13.9866 99.3003 13.3656C100.422 12.7292 100.983 11.8288 100.983 10.6646V10.4317C100.983 9.25194 100.422 8.35159 99.3003 7.73065C98.1785 7.10971 96.7696 6.79925 95.0733 6.79925C93.377 6.79925 91.9544 7.10971 90.8053 7.73065C89.6836 8.35159 89.1227 9.25194 89.1227 10.4317V10.6646C89.1227 11.8288 89.6836 12.7292 90.8053 13.3656C91.9544 13.9866 93.377 14.297 95.0733 14.297Z" fill="#0A2472"/>
<path d="M118.452 16.4858C116.892 16.4858 115.511 16.2918 114.307 15.9037C113.103 15.5001 112.173 14.9413 111.516 14.2272C110.86 13.4976 110.531 12.6516 110.531 11.6891V4.79673H115.21V11.4795C115.21 12.411 115.606 13.1017 116.4 13.5519C117.221 14.0021 118.37 14.2272 119.847 14.2272C121.516 14.2272 122.829 13.9167 123.787 13.2958C124.772 12.6748 125.264 11.7823 125.264 10.618V4.79673H129.943V16.2996H125.346V14.6929H124.649C124.293 15.112 123.636 15.5156 122.679 15.9037C121.749 16.2918 120.34 16.4858 118.452 16.4858Z" fill="#0A2472"/>
<path d="M144.316 16.6256C141.689 16.6256 139.528 16.2996 137.832 15.6476C136.135 14.9956 135.109 14.0409 134.754 12.7835L139.104 12.1548C139.295 12.7447 139.637 13.2104 140.13 13.5519C140.622 13.8934 141.224 14.134 141.935 14.2738C142.674 14.4135 143.467 14.4833 144.316 14.4833C145.601 14.4833 146.559 14.3514 147.188 14.0875C147.845 13.8236 148.173 13.4898 148.173 13.0862C148.173 12.6671 147.859 12.3566 147.229 12.1548C146.627 11.953 145.697 11.7823 144.439 11.6425L143.167 11.5261C141.771 11.3709 140.499 11.1613 139.35 10.8974C138.201 10.618 137.271 10.2454 136.559 9.77974C135.875 9.29851 135.533 8.6931 135.533 7.9635C135.533 6.84582 136.258 5.98427 137.708 5.37886C139.186 4.77344 141.115 4.47074 143.495 4.47074C145.766 4.47074 147.64 4.75792 149.117 5.33229C150.594 5.90665 151.552 6.67506 151.99 7.63751L147.64 8.38263C147.421 7.73065 146.942 7.27271 146.203 7.00881C145.465 6.72939 144.562 6.58968 143.495 6.58968C142.4 6.58968 141.552 6.69834 140.95 6.91567C140.376 7.133 140.089 7.44347 140.089 7.84707C140.089 8.25068 140.39 8.55339 140.992 8.75519C141.593 8.957 142.4 9.10447 143.413 9.19761L144.685 9.33732C146.19 9.49255 147.544 9.69436 148.748 9.94273C149.979 10.1911 150.95 10.5481 151.662 11.0138C152.373 11.4795 152.729 12.1082 152.729 12.8999C152.729 14.0952 151.962 15.0189 150.43 15.6709C148.926 16.3073 146.887 16.6256 144.316 16.6256Z" fill="#0A2472"/>
<path d="M0 36.674V20.3745H4.96565V27.0107H5.66331L15.6767 20.3745H22.0377L9.52092 28.4078L22.448 36.674H15.9229L5.66331 29.8981H4.96565V36.674H0Z" fill="#0A2472"/>
<path d="M34.6547 37C32.6302 37 30.8108 36.7672 29.1966 36.3014C27.6098 35.8202 26.3513 35.145 25.4211 34.2757C24.5182 33.3908 24.0668 32.3352 24.0668 31.1089V30.7363C24.0668 29.51 24.5182 28.4544 25.4211 27.5695C26.3513 26.6847 27.6098 26.0094 29.1966 25.5437C30.8108 25.078 32.6302 24.8452 34.6547 24.8452C36.6793 24.8452 38.485 25.078 40.0718 25.5437C41.6586 26.0094 42.9035 26.6847 43.8063 27.5695C44.7365 28.4544 45.2016 29.51 45.2016 30.7363V31.1089C45.2016 32.3352 44.7365 33.3908 43.8063 34.2757C42.9035 35.145 41.6586 35.8202 40.0718 36.3014C38.485 36.7672 36.6793 37 34.6547 37ZM34.6547 34.6249C36.3784 34.6249 37.7873 34.3145 38.8817 33.6935C39.9761 33.0571 40.5232 32.1722 40.5232 31.039V30.8062C40.5232 29.673 39.9761 28.7959 38.8817 28.175C37.7873 27.5385 36.3784 27.2203 34.6547 27.2203C32.9311 27.2203 31.5221 27.5385 30.4278 28.175C29.3334 28.7959 28.7862 29.673 28.7862 30.8062V31.039C28.7862 32.1722 29.3334 33.0571 30.4278 33.6935C31.5221 34.3145 32.9311 34.6249 34.6547 34.6249Z" fill="#0A2472"/>
<path d="M50.2199 36.674V25.1712H54.8572V26.7778H55.5549C55.9105 26.3432 56.5535 25.9318 57.4837 25.5437C58.4139 25.1557 59.8229 24.9616 61.7106 24.9616C63.2701 24.9616 64.6517 25.1634 65.8555 25.567C67.0593 25.9706 67.9895 26.5295 68.6461 27.2436C69.3301 27.9576 69.6721 28.8037 69.6721 29.7816V36.674H64.9527V29.9912C64.9527 29.0598 64.5423 28.369 63.7215 27.9188C62.9281 27.4531 61.7927 27.2203 60.3153 27.2203C58.6464 27.2203 57.3332 27.5385 56.3756 28.175C55.4181 28.7959 54.9393 29.6885 54.9393 30.8527V36.674H50.2199Z" fill="#0A2472"/>
<path d="M75.4681 36.674V25.1712H80.1055V26.7778H80.8031C81.1588 26.3432 81.8017 25.9318 82.7319 25.5437C83.6621 25.1557 85.0711 24.9616 86.9589 24.9616C88.5184 24.9616 89.9 25.1634 91.1038 25.567C92.3076 25.9706 93.2378 26.5295 93.8944 27.2436C94.5784 27.9576 94.9204 28.8037 94.9204 29.7816V36.674H90.2009V29.9912C90.2009 29.0598 89.7906 28.369 88.9698 27.9188C88.1764 27.4531 87.041 27.2203 85.5636 27.2203C83.8947 27.2203 82.5815 27.5385 81.6239 28.175C80.6663 28.7959 80.1876 29.6885 80.1876 30.8527V36.674H75.4681Z" fill="#0A2472"/>
<path d="M109.991 37C107.967 37 106.175 36.7594 104.615 36.2782C103.083 35.7814 101.879 35.0906 101.004 34.2058C100.156 33.3054 99.7315 32.2576 99.7315 31.0623V30.7829C99.7315 29.5721 100.156 28.5242 101.004 27.6394C101.852 26.7546 103.042 26.0715 104.574 25.5903C106.106 25.0936 107.871 24.8452 109.868 24.8452C111.838 24.8452 113.561 25.0936 115.039 25.5903C116.516 26.0715 117.665 26.7546 118.486 27.6394C119.307 28.5242 119.717 29.5565 119.717 30.7363V31.691H104.492C104.547 32.5914 105.108 33.3132 106.175 33.8565C107.242 34.3998 108.555 34.6715 110.114 34.6715C111.646 34.6715 112.782 34.4852 113.52 34.1127C114.259 33.7246 114.82 33.2899 115.203 32.8087L119.102 33.9497C118.719 34.3688 118.158 34.819 117.419 35.3002C116.708 35.7659 115.75 36.1695 114.546 36.511C113.343 36.837 111.824 37 109.991 37ZM104.533 29.6652H114.916C114.806 28.9046 114.286 28.2991 113.356 27.849C112.453 27.3988 111.277 27.1737 109.827 27.1737C108.322 27.1737 107.118 27.3988 106.216 27.849C105.313 28.2991 104.752 28.9046 104.533 29.6652Z" fill="#0A2472"/>
<path d="M134.042 37C132.072 37 130.294 36.7672 128.707 36.3014C127.12 35.8357 125.862 35.1605 124.931 34.2757C124.028 33.3908 123.577 32.3275 123.577 31.0856V30.7596C123.577 29.5177 124.028 28.4544 124.931 27.5695C125.862 26.6847 127.12 26.0094 128.707 25.5437C130.294 25.078 132.072 24.8452 134.042 24.8452C135.984 24.8452 137.64 25.0392 139.008 25.4273C140.403 25.8154 141.525 26.351 142.373 27.034C143.221 27.7015 143.768 28.4544 144.014 29.2926L139.459 29.8282C139.35 29.347 139.09 28.9123 138.679 28.5242C138.269 28.1206 137.681 27.8024 136.915 27.5695C136.176 27.3367 135.259 27.2203 134.165 27.2203C133.043 27.2203 132.031 27.36 131.128 27.6394C130.253 27.9033 129.555 28.3069 129.035 28.8502C128.543 29.3935 128.296 30.0455 128.296 30.8062V31.039C128.296 31.7997 128.543 32.4516 129.035 32.995C129.555 33.5228 130.253 33.9264 131.128 34.2058C132.031 34.4852 133.043 34.6249 134.165 34.6249C135.834 34.6249 137.092 34.3843 137.941 33.9031C138.816 33.4063 139.363 32.7699 139.582 31.9937L144.137 32.5991C143.809 33.4063 143.221 34.1437 142.373 34.8112C141.525 35.4787 140.403 36.0143 139.008 36.4179C137.64 36.806 135.984 37 134.042 37Z" fill="#0A2472"/>
<path d="M155.762 36.674C154.449 36.674 153.396 36.4567 152.602 36.022C151.836 35.5718 151.453 34.9664 151.453 34.2058V27.3833H146.159V25.1712H151.453V21.4688H156.173V25.1712H162V27.3833H156.173V33.7634C156.173 34.2291 156.556 34.4619 157.322 34.4619H161.384V36.674H155.762Z" fill="#0A2472"/>
</svg>
